<?xml version="1.0"?>
<svg width="247.99999999999997" height="68" xmlns="http://www.w3.org/2000/svg" xmlns:svg="http://www.w3.org/2000/svg">
 <g class="layer">
  <title>Layer 1</title>
  <path d="m0,50.84l0,-30.24c0,-0.84 0.9,-1.36 1.62,-0.95l26.02,15.13c0.66,0.38 1.08,1.1 1.08,1.88l0,30.25c0,0.84 -0.9,1.36 -1.62,0.94l-26.02,-15.12c-0.67,-0.39 -1.08,-1.11 -1.08,-1.88l0,-0.01z" fill="#6359FF" id="svg_1"/>
  <path d="m3.38,15.18l25.61,-14.89c0.66,-0.39 1.49,-0.39 2.16,0l25.61,14.89c0.89,0.52 0.89,1.83 0,2.36l-25.61,14.88c-0.67,0.39 -1.5,0.39 -2.16,0l-25.61,-14.88c-0.9,-0.53 -0.9,-1.84 0,-2.36z" fill="#FFC806" id="svg_2"/>
  <path d="m31.42,66.91l0,-28.05c0,-0.84 0.9,-1.36 1.62,-0.94l23.72,13.79c0.89,0.52 0.89,1.83 0,2.35l-23.72,13.79c-0.72,0.42 -1.62,-0.1 -1.62,-0.94z" fill="#0BBFBF" id="svg_3"/>
  <path d="m142.98,37.57c-0.29,2.48 -1.31,3.48 -3.06,3.48c-2.16,0 -3.3,-1.51 -3.3,-4.64l0,-0.32l9.8,0c0.08,-0.79 0.11,-1.47 0.11,-2.2c0,-4.72 -2.37,-7.36 -6.62,-7.36c-4.57,0 -7.04,2.78 -7.04,7.83l0,1.44c0,5.05 2.46,7.82 6.93,7.82c3.89,0 6.25,-1.85 6.8,-5.57l-3.62,-0.47l0,-0.01zm-3.1,-8.48c1.93,0 2.9,1.26 2.9,3.99l0,0.42l-6.16,0c0.07,-2.95 1.16,-4.41 3.26,-4.41z" fill="#ffffff" id="svg_4"/>
  <path d="m71.23,37.06l3.85,0.49c-0.45,3.97 -2.77,6.09 -6.79,6.09c-4.56,0 -6.92,-2.96 -6.92,-8.63l0,-0.07c0,-5.54 2.42,-8.43 6.94,-8.43c4.08,0 6.26,2.18 6.58,6.3l-3.75,0.45c-0.17,-2.85 -1.04,-4.15 -2.85,-4.15c-2.07,0 -3.05,1.68 -3.05,5.22l0,1.3c0,3.64 1.01,5.38 3.1,5.38c1.78,0 2.71,-1.31 2.89,-3.94l0,-0.01z" fill="#ffffff" id="svg_5"/>
  <path d="m83.71,26.5c-4.48,0 -6.97,3.15 -6.97,8.4l0,0.34c0,5.21 2.49,8.39 6.97,8.39c4.49,0 6.98,-3.18 6.98,-8.39l0,-0.34c0,-5.25 -2.49,-8.4 -6.98,-8.4zm3.1,9.3c0,3.54 -1.03,5.22 -3.1,5.22c-2.07,0 -3.09,-1.68 -3.09,-5.22l0,-1.46c0,-3.54 1,-5.24 3.09,-5.24c2.09,0 3.1,1.7 3.1,5.24l0,1.46z" fill="#ffffff" id="svg_6"/>
  <path d="m220.5,26.5c-4.49,0 -6.97,3.15 -6.97,8.4l0,0.34c0,5.21 2.48,8.39 6.97,8.39c4.48,0 6.97,-3.18 6.97,-8.39l0,-0.34c0,-5.25 -2.49,-8.4 -6.97,-8.4zm3.09,9.3c0,3.54 -1.02,5.22 -3.09,5.22c-2.08,0 -3.09,-1.68 -3.09,-5.22l0,-1.46c0,-3.54 1,-5.24 3.09,-5.24c2.08,0 3.09,1.7 3.09,5.24l0,1.46z" fill="#ffffff" id="svg_7"/>
  <path d="m233.3,22.05l-3.78,0l0,21.19l3.78,0l0,-21.19z" fill="#ffffff" id="svg_8"/>
  <path d="m167.8,37.06l3.85,0.49c-0.45,3.97 -2.77,6.09 -6.78,6.09c-4.57,0 -6.93,-2.96 -6.93,-8.63l0,-0.07c0,-5.54 2.42,-8.43 6.94,-8.43c4.08,0 6.26,2.18 6.59,6.3l-3.76,0.45c-0.17,-2.85 -1.04,-4.15 -2.84,-4.15c-2.08,0 -3.06,1.68 -3.06,5.22l0,1.3c0,3.64 1.01,5.38 3.1,5.38c1.78,0 2.72,-1.31 2.89,-3.94l0,-0.01z" fill="#ffffff" id="svg_9"/>
  <path d="m248,39.19c0,2.98 -2.29,4.77 -6.23,4.77c-4.21,0 -6.62,-1.86 -6.73,-5.16l3.59,-0.73c-0.03,2.13 1.08,3.33 3.12,3.33c1.6,0 2.48,-0.62 2.48,-1.85c0,-1.23 -0.79,-1.78 -2.86,-2.55l-2.08,-0.8c-2.06,-0.79 -3.84,-2.32 -3.84,-4.59c0,-3.02 2.08,-4.77 5.87,-4.77c3.79,0 6.17,1.73 6.18,4.77l-3.5,0.62c0.07,-1.93 -0.88,-2.79 -2.63,-2.79c-1.53,0 -2.38,0.58 -2.38,1.62c0,1.05 0.74,1.73 2.81,2.48l2.07,0.76c2.08,0.77 4.13,1.95 4.13,4.89l0,0z" fill="#ffffff" id="svg_10"/>
  <path d="m204.94,26.5c-4.49,0 -6.98,3.15 -6.98,8.4l0,0.34c0,5.21 2.49,8.39 6.98,8.39c4.48,0 6.97,-3.18 6.97,-8.39l0,-0.34c0,-5.25 -2.49,-8.4 -6.97,-8.4zm3.09,9.3c0,3.54 -1.02,5.22 -3.09,5.22c-2.08,0 -3.1,-1.68 -3.1,-5.22l0,-1.46c0,-3.54 1.01,-5.24 3.1,-5.24c2.08,0 3.09,1.7 3.09,5.24l0,1.46z" fill="#ffffff" id="svg_11"/>
  <path d="m194.72,40.61c0.7,0 1.57,-0.19 2.39,-0.54l-0.22,2.77c-0.85,0.45 -2.17,0.76 -3.4,0.76c-2.94,0 -4.46,-1.49 -4.46,-4.7l0,-15.71l3.78,-1.13l0,4.84l4.25,0l0,2.75l-4.25,0l0,8.8c0,1.56 0.63,2.16 1.91,2.16l0,0z" fill="#ffffff" id="svg_12"/>
  <path d="m183.42,37.57c-0.29,2.48 -1.31,3.48 -3.06,3.48c-2.16,0 -3.3,-1.51 -3.3,-4.64l0,-0.32l9.8,0c0.08,-0.79 0.11,-1.47 0.11,-2.2c0,-4.72 -2.37,-7.36 -6.62,-7.36c-4.57,0 -7.04,2.78 -7.04,7.83l0,1.44c0,5.05 2.46,7.82 6.93,7.82c3.9,0 6.25,-1.85 6.8,-5.57l-3.62,-0.47l0,-0.01zm-3.11,-8.48c1.94,0 2.91,1.26 2.91,3.99l0,0.42l-6.16,0c0.07,-2.95 1.16,-4.41 3.25,-4.41z" fill="#ffffff" id="svg_13"/>
  <path d="m104.42,31.24c1.16,-3.26 2.95,-4.73 5.26,-4.73c2.49,0 3.63,1.79 3.03,4.64l0.31,0.09c1.16,-3.26 2.95,-4.73 5.26,-4.73c2.49,0 3.63,1.79 3.03,4.64l0.31,0.09c1.14,-3.27 2.92,-4.73 5.35,-4.73c2.64,0 3.9,1.58 3.9,4.62l0,12.11l-3.77,0l0,-11.47c0,-1.62 -0.62,-2.42 -1.86,-2.42c-1.89,0 -2.97,2.33 -2.97,5.46l0,8.44l-3.75,0l0,-11.45c0,-1.58 -0.71,-2.45 -1.88,-2.45c-1.89,0 -2.97,2.33 -2.97,5.46l0,8.44l-3.75,0l0,-11.45c0,-1.58 -0.65,-2.47 -1.83,-2.47l0,0l0,0.02c0,0 -0.01,0 -0.01,0c-1.88,0 -2.97,2.33 -2.97,5.46l0,8.44l-3.75,0l0,-11.44c0,-1.59 -0.65,-2.48 -1.82,-2.48c-1.83,0 -3.04,2.24 -3.04,5.57l0,8.35l-3.77,0l0,-16.35l3.79,0c0.03,1 -0.16,1.89 -0.87,4.1l0.31,0.14c1.45,-3.35 2.95,-4.63 5.16,-4.63c2.49,0 3.64,1.79 3.04,4.64l0.27,0.1l-0.01,-0.01z" fill="#ffffff" id="svg_14"/>
  <path d="m157.62,29.84c-4.21,0.28 -5.2,1.7 -5.2,6.26l0,7.14l-3.77,0l0,-16.34l3.79,0c0.03,1.15 -0.12,1.98 -0.88,4.17l0.31,0.14c1.05,-2.47 2.28,-4.75 6.02,-4.83l-0.27,3.45l0,0.01z" fill="#ffffff" id="svg_15"/>
 </g>
</svg>