<svg width="248" height="68" viewBox="0 0 248 68" fill="none" xmlns="http://www.w3.org/2000/svg">
<path d="M0 50.8441V20.5961C0 19.7579 0.899305 19.2365 1.62023 19.6531L27.6357 34.7759C28.3046 35.165 28.7158 35.8835 28.7158 36.6594V66.9074C28.7158 67.7456 27.8165 68.267 27.0956 67.8504L1.08016 52.7301C0.411252 52.3409 0 51.6225 0 50.8466V50.8441Z" fill="#6359FF"/>
<path d="M3.37663 15.1801L28.9858 0.291878C29.6547 -0.0972925 30.4772 -0.0972925 31.1461 0.291878L56.7552 15.1801C57.6545 15.704 57.6545 17.0112 56.7552 17.5351L31.1461 32.4234C30.4772 32.8125 29.6547 32.8125 28.9858 32.4234L3.37663 17.5351C2.47732 17.0112 2.47732 15.704 3.37663 15.1801Z" fill="#FFC806"/>
<path d="M31.416 66.9098V38.8597C31.416 38.0214 32.3153 37.5001 33.0363 37.9167L56.7551 51.7073C57.6544 52.2311 57.6544 53.5384 56.7551 54.0622L33.0363 67.8528C32.3153 68.2719 31.416 67.7481 31.416 66.9098Z" fill="#0BBFBF"/>
<path d="M142.982 37.9142C142.692 40.3889 141.666 41.3868 139.922 41.3868C137.76 41.3868 136.615 39.8775 136.615 36.7467V36.4348H146.416C146.495 35.639 146.525 34.9555 146.525 34.227C146.525 29.5121 144.156 26.8652 139.907 26.8652C135.344 26.8652 132.872 29.6468 132.872 34.696V36.1405C132.872 41.1872 135.329 43.9613 139.798 43.9613C143.695 43.9613 146.047 42.1052 146.599 38.3857L142.982 37.9167V37.9142ZM139.875 29.4298C141.81 29.4298 142.784 30.6921 142.784 33.4163V33.8379H136.617C136.692 30.8941 137.777 29.4298 139.875 29.4298Z" fill="#191741"/>
<path d="M71.2259 37.4028L75.0783 37.8867C74.6274 41.8583 72.3085 43.9762 68.2926 43.9762C63.7292 43.9762 61.3657 41.0176 61.3657 35.3496V35.2848C61.3657 29.7441 63.7886 26.8453 68.3075 26.8453C72.3853 26.8453 74.5704 29.0281 74.8949 33.1518L71.1367 33.6034C70.9657 30.7544 70.0962 29.4472 68.2926 29.4472C66.219 29.4472 65.2429 31.1286 65.2429 34.6661V35.9708C65.2429 39.6131 66.2487 41.3469 68.3372 41.3469C70.116 41.3469 71.0549 40.0396 71.2259 37.4053V37.4028Z" fill="#191741"/>
<path d="M83.7146 26.8428C79.2305 26.8428 76.7432 29.9886 76.7432 35.2374V35.5791C76.7432 40.793 79.233 43.9737 83.7146 43.9737C88.1963 43.9737 90.6861 40.793 90.6861 35.5791V35.2374C90.6861 29.9886 88.1963 26.8428 83.7146 26.8428ZM86.8065 36.138C86.8065 39.6754 85.7808 41.3568 83.7122 41.3568C81.6435 41.3568 80.6179 39.6754 80.6179 36.138V34.6786C80.6179 31.1411 81.6212 29.4447 83.7122 29.4447C85.8031 29.4447 86.8065 31.1411 86.8065 34.6786V36.138Z" fill="#191741"/>
<path d="M220.498 26.8428C216.014 26.8428 213.526 29.9886 213.526 35.2374V35.5791C213.526 40.793 216.014 43.9737 220.498 43.9737C224.982 43.9737 227.474 40.793 227.474 35.5791V35.2374C227.474 29.9886 224.979 26.8428 220.498 26.8428ZM223.592 36.138C223.592 39.6754 222.574 41.3568 220.498 41.3568C218.422 41.3568 217.408 39.6754 217.408 36.138V34.6786C217.408 31.1411 218.412 29.4447 220.498 29.4447C222.584 29.4447 223.592 31.1411 223.592 34.6786V36.138Z" fill="#191741"/>
<path d="M233.297 22.3948H229.523V43.5821H233.297V22.3948Z" fill="#191741"/>
<path d="M167.798 37.4028L171.651 37.8867C171.2 41.8583 168.883 43.9762 164.865 43.9762C160.301 43.9762 157.938 41.0176 157.938 35.3496V35.2848C157.938 29.7441 160.361 26.8453 164.88 26.8453C168.958 26.8453 171.143 29.0281 171.467 33.1518L167.709 33.6034C167.538 30.7544 166.668 29.4472 164.865 29.4472C162.791 29.4472 161.815 31.1286 161.815 34.6661V35.9708C161.815 39.6131 162.821 41.3469 164.909 41.3469C166.688 41.3469 167.627 40.0396 167.798 37.4053V37.4028Z" fill="#191741"/>
<path d="M248 39.1939C248 42.1676 245.711 43.9588 241.767 43.9588C237.562 43.9588 235.149 42.1027 235.045 38.7998L238.628 38.0688C238.598 40.2018 239.713 41.4017 241.752 41.4017C243.347 41.4017 244.227 40.7781 244.227 39.5507C244.227 38.3233 243.441 37.7745 241.368 36.9986L239.294 36.2028C237.226 35.407 235.447 33.8828 235.447 31.6076C235.447 28.5866 237.535 26.8428 241.323 26.8428C245.111 26.8428 247.49 28.5741 247.504 31.6076L243.996 32.2313C244.071 30.2979 243.117 29.4422 241.368 29.4422C239.839 29.4422 238.989 30.021 238.989 31.0638C238.989 32.1065 239.73 32.7901 241.804 33.5385L243.872 34.2994C245.946 35.0652 248 36.2477 248 39.1914V39.1939Z" fill="#191741"/>
<path d="M204.935 26.8428C200.451 26.8428 197.963 29.9886 197.963 35.2374V35.5791C197.963 40.793 200.451 43.9737 204.935 43.9737C209.419 43.9737 211.911 40.793 211.911 35.5791V35.2374C211.911 29.9886 209.417 26.8428 204.935 26.8428ZM208.029 36.138C208.029 39.6754 207.008 41.3568 204.935 41.3568C202.861 41.3568 201.845 39.6754 201.845 36.138V34.6786C201.845 31.1411 202.849 29.4447 204.935 29.4447C207.021 29.4447 208.029 31.1411 208.029 34.6786V36.138Z" fill="#191741"/>
<path d="M194.723 40.9502C195.421 40.9502 196.286 40.7631 197.106 40.4064L196.891 43.1805C196.036 43.632 194.72 43.9413 193.487 43.9413C190.548 43.9413 189.035 42.447 189.035 39.2414V23.5349L192.808 22.3973V27.2395H197.062V29.9936H192.808V38.7898C192.808 40.349 193.442 40.9527 194.723 40.9527V40.9502Z" fill="#191741"/>
<path d="M183.423 37.9142C183.133 40.3889 182.11 41.3868 180.364 41.3868C178.198 41.3868 177.056 39.8775 177.056 36.7467V36.4348H186.857C186.936 35.639 186.966 34.9555 186.966 34.227C186.966 29.5121 184.598 26.8652 180.349 26.8652C175.785 26.8652 173.313 29.6468 173.313 34.696V36.1405C173.313 41.1872 175.771 43.9613 180.24 43.9613C184.139 43.9613 186.488 42.1052 187.043 38.3857L183.423 37.9167V37.9142ZM180.314 29.4298C182.249 29.4298 183.223 30.6921 183.223 33.4163V33.8379H177.056C177.131 30.8941 178.216 29.4298 180.314 29.4298Z" fill="#191741"/>
<path d="M104.421 31.5802C105.583 28.3221 107.372 26.8453 109.676 26.8453C112.165 26.8453 113.312 28.6365 112.713 31.4854L113.023 31.5802C114.184 28.3221 115.973 26.8453 118.277 26.8453C120.767 26.8453 121.914 28.6365 121.315 31.4854L121.624 31.5802C122.764 28.3097 124.54 26.8453 126.97 26.8453C129.614 26.8453 130.87 28.4344 130.87 31.4704V43.5846H127.097V32.1115C127.097 30.4925 126.477 29.6867 125.239 29.6867C123.353 29.6867 122.271 32.0217 122.271 35.1476V43.5871H118.518V32.144C118.518 30.5574 117.811 29.6867 116.637 29.6867C114.754 29.6867 113.669 32.0217 113.669 35.1476V43.5871H109.916V32.144C109.916 30.5574 109.267 29.6668 108.093 29.6668H108.088V29.6892C108.088 29.6892 108.083 29.6892 108.08 29.6892C106.197 29.6892 105.112 32.0242 105.112 35.1501V43.5896H101.359V32.1465C101.359 30.5599 100.71 29.6693 99.5355 29.6693C97.7121 29.6693 96.5007 31.9145 96.5007 35.2449V43.5896H92.7275V27.2444H96.5155C96.5502 28.2398 96.3619 29.1254 95.6509 31.3357L95.9606 31.4754C97.4148 28.1275 98.9137 26.8503 101.124 26.8503C103.613 26.8503 104.758 28.6414 104.158 31.4904L104.426 31.5852L104.421 31.5802Z" fill="#191741"/>
<path d="M157.621 30.1757C153.41 30.4625 152.424 31.8795 152.424 36.4373V43.5821H148.65V27.2369H152.438C152.473 28.3895 152.319 29.2152 151.559 31.408L151.869 31.5477C152.924 29.0755 154.15 26.8004 157.889 26.723L157.621 30.1732V30.1757Z" fill="#191741"/>
</svg>
